<mxfile host="app.diagrams.net" modified="2024-03-21T12:42:41.812Z" agent="Mozilla/5.0 (Windows NT 10.0; Win64; x64) AppleWebKit/537.36 (KHTML, like Gecko) Chrome/121.0.0.0 Safari/537.36 OPR/107.0.0.0 (Edition std-1)" etag="Ab4cjFyw16Ho7ZRYPTFI" version="24.0.7" type="device">
  <diagram name="Página-1" id="ol52-Fbn4Z2OPr96En_L">
    <mxGraphModel dx="911" dy="499" grid="1" gridSize="10" guides="1" tooltips="1" connect="1" arrows="1" fold="1" page="1" pageScale="1" pageWidth="1169" pageHeight="827" math="0" shadow="0">
      <root>
        <mxCell id="0" />
        <mxCell id="1" parent="0" />
        <mxCell id="gmv5tpU_2w_kzTAVhH7P-58" style="edgeStyle=orthogonalEdgeStyle;rounded=0;orthogonalLoop=1;jettySize=auto;html=1;endArrow=none;endFill=0;" edge="1" parent="1" source="gmv5tpU_2w_kzTAVhH7P-5" target="gmv5tpU_2w_kzTAVhH7P-57">
          <mxGeometry relative="1" as="geometry" />
        </mxCell>
        <mxCell id="gmv5tpU_2w_kzTAVhH7P-5" value="SÓCIO" style="rounded=0;whiteSpace=wrap;html=1;" vertex="1" parent="1">
          <mxGeometry x="210" y="250" width="120" height="40" as="geometry" />
        </mxCell>
        <mxCell id="gmv5tpU_2w_kzTAVhH7P-6" style="edgeStyle=orthogonalEdgeStyle;rounded=0;orthogonalLoop=1;jettySize=auto;html=1;endArrow=none;endFill=0;" edge="1" source="gmv5tpU_2w_kzTAVhH7P-7" parent="1">
          <mxGeometry relative="1" as="geometry">
            <mxPoint x="223" y="250" as="targetPoint" />
          </mxGeometry>
        </mxCell>
        <mxCell id="gmv5tpU_2w_kzTAVhH7P-7" value="" style="ellipse;whiteSpace=wrap;html=1;" vertex="1" parent="1">
          <mxGeometry x="218" y="220" width="10" height="10" as="geometry" />
        </mxCell>
        <mxCell id="gmv5tpU_2w_kzTAVhH7P-8" value="&lt;font style=&quot;font-size: 8px;&quot;&gt;nome&lt;/font&gt;" style="text;html=1;align=center;verticalAlign=middle;resizable=0;points=[];autosize=1;strokeColor=none;fillColor=none;" vertex="1" parent="1">
          <mxGeometry x="203" y="196" width="40" height="30" as="geometry" />
        </mxCell>
        <mxCell id="gmv5tpU_2w_kzTAVhH7P-9" style="edgeStyle=orthogonalEdgeStyle;rounded=0;orthogonalLoop=1;jettySize=auto;html=1;endArrow=none;endFill=0;" edge="1" source="gmv5tpU_2w_kzTAVhH7P-10" parent="1">
          <mxGeometry relative="1" as="geometry">
            <mxPoint x="253" y="250" as="targetPoint" />
          </mxGeometry>
        </mxCell>
        <mxCell id="gmv5tpU_2w_kzTAVhH7P-10" value="" style="ellipse;whiteSpace=wrap;html=1;" vertex="1" parent="1">
          <mxGeometry x="248" y="220" width="10" height="10" as="geometry" />
        </mxCell>
        <mxCell id="gmv5tpU_2w_kzTAVhH7P-11" value="&lt;font style=&quot;font-size: 8px;&quot;&gt;endereço&lt;/font&gt;" style="text;html=1;align=center;verticalAlign=middle;resizable=0;points=[];autosize=1;strokeColor=none;fillColor=none;" vertex="1" parent="1">
          <mxGeometry x="223" y="196" width="60" height="30" as="geometry" />
        </mxCell>
        <mxCell id="gmv5tpU_2w_kzTAVhH7P-12" style="edgeStyle=orthogonalEdgeStyle;rounded=0;orthogonalLoop=1;jettySize=auto;html=1;endArrow=none;endFill=0;" edge="1" source="gmv5tpU_2w_kzTAVhH7P-13" parent="1">
          <mxGeometry relative="1" as="geometry">
            <mxPoint x="287" y="250" as="targetPoint" />
          </mxGeometry>
        </mxCell>
        <mxCell id="gmv5tpU_2w_kzTAVhH7P-13" value="" style="ellipse;whiteSpace=wrap;html=1;" vertex="1" parent="1">
          <mxGeometry x="282" y="220" width="10" height="10" as="geometry" />
        </mxCell>
        <mxCell id="gmv5tpU_2w_kzTAVhH7P-14" value="&lt;font style=&quot;font-size: 8px;&quot;&gt;data&lt;/font&gt;" style="text;html=1;align=center;verticalAlign=middle;resizable=0;points=[];autosize=1;strokeColor=none;fillColor=none;" vertex="1" parent="1">
          <mxGeometry x="267" y="196" width="40" height="30" as="geometry" />
        </mxCell>
        <mxCell id="gmv5tpU_2w_kzTAVhH7P-15" style="edgeStyle=orthogonalEdgeStyle;rounded=0;orthogonalLoop=1;jettySize=auto;html=1;endArrow=none;endFill=0;" edge="1" source="gmv5tpU_2w_kzTAVhH7P-16" parent="1">
          <mxGeometry relative="1" as="geometry">
            <mxPoint x="315" y="250" as="targetPoint" />
          </mxGeometry>
        </mxCell>
        <mxCell id="gmv5tpU_2w_kzTAVhH7P-16" value="" style="ellipse;whiteSpace=wrap;html=1;" vertex="1" parent="1">
          <mxGeometry x="310" y="220" width="10" height="10" as="geometry" />
        </mxCell>
        <mxCell id="gmv5tpU_2w_kzTAVhH7P-17" value="&lt;font style=&quot;font-size: 8px;&quot;&gt;telefone&lt;/font&gt;" style="text;html=1;align=center;verticalAlign=middle;resizable=0;points=[];autosize=1;strokeColor=none;fillColor=none;" vertex="1" parent="1">
          <mxGeometry x="297" y="196" width="50" height="30" as="geometry" />
        </mxCell>
        <mxCell id="gmv5tpU_2w_kzTAVhH7P-89" style="edgeStyle=orthogonalEdgeStyle;rounded=0;orthogonalLoop=1;jettySize=auto;html=1;endArrow=none;endFill=0;" edge="1" parent="1" source="gmv5tpU_2w_kzTAVhH7P-19" target="gmv5tpU_2w_kzTAVhH7P-88">
          <mxGeometry relative="1" as="geometry" />
        </mxCell>
        <mxCell id="gmv5tpU_2w_kzTAVhH7P-19" value="LIVRO" style="rounded=0;whiteSpace=wrap;html=1;" vertex="1" parent="1">
          <mxGeometry x="537" y="250" width="120" height="40" as="geometry" />
        </mxCell>
        <mxCell id="gmv5tpU_2w_kzTAVhH7P-20" style="edgeStyle=orthogonalEdgeStyle;rounded=0;orthogonalLoop=1;jettySize=auto;html=1;endArrow=none;endFill=0;" edge="1" parent="1" source="gmv5tpU_2w_kzTAVhH7P-21">
          <mxGeometry relative="1" as="geometry">
            <mxPoint x="550" y="250" as="targetPoint" />
          </mxGeometry>
        </mxCell>
        <mxCell id="gmv5tpU_2w_kzTAVhH7P-21" value="" style="ellipse;whiteSpace=wrap;html=1;" vertex="1" parent="1">
          <mxGeometry x="545" y="220" width="10" height="10" as="geometry" />
        </mxCell>
        <mxCell id="gmv5tpU_2w_kzTAVhH7P-22" value="&lt;span style=&quot;font-size: 8px;&quot;&gt;ISBN&lt;/span&gt;" style="text;html=1;align=center;verticalAlign=middle;resizable=0;points=[];autosize=1;strokeColor=none;fillColor=none;" vertex="1" parent="1">
          <mxGeometry x="530" y="196" width="40" height="30" as="geometry" />
        </mxCell>
        <mxCell id="gmv5tpU_2w_kzTAVhH7P-23" style="edgeStyle=orthogonalEdgeStyle;rounded=0;orthogonalLoop=1;jettySize=auto;html=1;endArrow=none;endFill=0;" edge="1" parent="1" source="gmv5tpU_2w_kzTAVhH7P-24">
          <mxGeometry relative="1" as="geometry">
            <mxPoint x="577" y="250" as="targetPoint" />
          </mxGeometry>
        </mxCell>
        <mxCell id="gmv5tpU_2w_kzTAVhH7P-24" value="" style="ellipse;whiteSpace=wrap;html=1;" vertex="1" parent="1">
          <mxGeometry x="572" y="220" width="10" height="10" as="geometry" />
        </mxCell>
        <mxCell id="gmv5tpU_2w_kzTAVhH7P-25" value="&lt;font style=&quot;font-size: 8px;&quot;&gt;titulo&lt;/font&gt;" style="text;html=1;align=center;verticalAlign=middle;resizable=0;points=[];autosize=1;strokeColor=none;fillColor=none;" vertex="1" parent="1">
          <mxGeometry x="557" y="196" width="40" height="30" as="geometry" />
        </mxCell>
        <mxCell id="gmv5tpU_2w_kzTAVhH7P-26" style="edgeStyle=orthogonalEdgeStyle;rounded=0;orthogonalLoop=1;jettySize=auto;html=1;endArrow=none;endFill=0;" edge="1" parent="1" source="gmv5tpU_2w_kzTAVhH7P-27">
          <mxGeometry relative="1" as="geometry">
            <mxPoint x="609" y="250" as="targetPoint" />
          </mxGeometry>
        </mxCell>
        <mxCell id="gmv5tpU_2w_kzTAVhH7P-27" value="" style="ellipse;whiteSpace=wrap;html=1;" vertex="1" parent="1">
          <mxGeometry x="604" y="220" width="10" height="10" as="geometry" />
        </mxCell>
        <mxCell id="gmv5tpU_2w_kzTAVhH7P-28" value="&lt;font style=&quot;font-size: 8px;&quot;&gt;exemplar&lt;/font&gt;" style="text;html=1;align=center;verticalAlign=middle;resizable=0;points=[];autosize=1;strokeColor=none;fillColor=none;" vertex="1" parent="1">
          <mxGeometry x="579" y="196" width="60" height="30" as="geometry" />
        </mxCell>
        <mxCell id="gmv5tpU_2w_kzTAVhH7P-29" style="edgeStyle=orthogonalEdgeStyle;rounded=0;orthogonalLoop=1;jettySize=auto;html=1;endArrow=none;endFill=0;" edge="1" parent="1" source="gmv5tpU_2w_kzTAVhH7P-30">
          <mxGeometry relative="1" as="geometry">
            <mxPoint x="648" y="250" as="targetPoint" />
          </mxGeometry>
        </mxCell>
        <mxCell id="gmv5tpU_2w_kzTAVhH7P-30" value="" style="ellipse;whiteSpace=wrap;html=1;" vertex="1" parent="1">
          <mxGeometry x="643" y="220" width="10" height="10" as="geometry" />
        </mxCell>
        <mxCell id="gmv5tpU_2w_kzTAVhH7P-31" value="&lt;font style=&quot;font-size: 8px;&quot;&gt;autor (1,n)&lt;/font&gt;" style="text;html=1;align=center;verticalAlign=middle;resizable=0;points=[];autosize=1;strokeColor=none;fillColor=none;" vertex="1" parent="1">
          <mxGeometry x="618" y="196" width="60" height="30" as="geometry" />
        </mxCell>
        <mxCell id="gmv5tpU_2w_kzTAVhH7P-37" value="&lt;font style=&quot;font-size: 8px;&quot;&gt;data_requisicao&lt;/font&gt;" style="text;html=1;align=center;verticalAlign=middle;resizable=0;points=[];autosize=1;strokeColor=none;fillColor=none;" vertex="1" parent="1">
          <mxGeometry x="678" y="251" width="80" height="30" as="geometry" />
        </mxCell>
        <mxCell id="gmv5tpU_2w_kzTAVhH7P-40" value="" style="ellipse;whiteSpace=wrap;html=1;" vertex="1" parent="1">
          <mxGeometry x="678" y="250" width="10" height="10" as="geometry" />
        </mxCell>
        <mxCell id="gmv5tpU_2w_kzTAVhH7P-41" value="&lt;font style=&quot;font-size: 8px;&quot;&gt;data_entrega&lt;/font&gt;" style="text;html=1;align=center;verticalAlign=middle;resizable=0;points=[];autosize=1;strokeColor=none;fillColor=none;" vertex="1" parent="1">
          <mxGeometry x="678" y="237" width="70" height="30" as="geometry" />
        </mxCell>
        <mxCell id="gmv5tpU_2w_kzTAVhH7P-42" style="edgeStyle=orthogonalEdgeStyle;rounded=0;orthogonalLoop=1;jettySize=auto;html=1;entryX=1.006;entryY=0.133;entryDx=0;entryDy=0;entryPerimeter=0;endArrow=none;endFill=0;" edge="1" parent="1" source="gmv5tpU_2w_kzTAVhH7P-40" target="gmv5tpU_2w_kzTAVhH7P-19">
          <mxGeometry relative="1" as="geometry" />
        </mxCell>
        <mxCell id="gmv5tpU_2w_kzTAVhH7P-43" value="" style="ellipse;whiteSpace=wrap;html=1;" vertex="1" parent="1">
          <mxGeometry x="678" y="265" width="10" height="10" as="geometry" />
        </mxCell>
        <mxCell id="gmv5tpU_2w_kzTAVhH7P-44" style="edgeStyle=orthogonalEdgeStyle;rounded=0;orthogonalLoop=1;jettySize=auto;html=1;entryX=1.006;entryY=0.133;entryDx=0;entryDy=0;entryPerimeter=0;endArrow=none;endFill=0;" edge="1" parent="1" source="gmv5tpU_2w_kzTAVhH7P-43">
          <mxGeometry relative="1" as="geometry">
            <mxPoint x="658" y="270" as="targetPoint" />
          </mxGeometry>
        </mxCell>
        <mxCell id="gmv5tpU_2w_kzTAVhH7P-45" value="" style="ellipse;whiteSpace=wrap;html=1;" vertex="1" parent="1">
          <mxGeometry x="678" y="280" width="10" height="10" as="geometry" />
        </mxCell>
        <mxCell id="gmv5tpU_2w_kzTAVhH7P-46" style="edgeStyle=orthogonalEdgeStyle;rounded=0;orthogonalLoop=1;jettySize=auto;html=1;entryX=1.006;entryY=0.133;entryDx=0;entryDy=0;entryPerimeter=0;endArrow=none;endFill=0;" edge="1" parent="1" source="gmv5tpU_2w_kzTAVhH7P-45">
          <mxGeometry relative="1" as="geometry">
            <mxPoint x="658" y="285" as="targetPoint" />
          </mxGeometry>
        </mxCell>
        <mxCell id="gmv5tpU_2w_kzTAVhH7P-47" value="&lt;font style=&quot;font-size: 8px;&quot;&gt;socio&lt;/font&gt;" style="text;html=1;align=center;verticalAlign=middle;resizable=0;points=[];autosize=1;strokeColor=none;fillColor=none;" vertex="1" parent="1">
          <mxGeometry x="680" y="268" width="40" height="30" as="geometry" />
        </mxCell>
        <mxCell id="gmv5tpU_2w_kzTAVhH7P-49" style="edgeStyle=orthogonalEdgeStyle;rounded=0;orthogonalLoop=1;jettySize=auto;html=1;endArrow=none;endFill=0;" edge="1" parent="1" source="gmv5tpU_2w_kzTAVhH7P-48" target="gmv5tpU_2w_kzTAVhH7P-19">
          <mxGeometry relative="1" as="geometry" />
        </mxCell>
        <mxCell id="gmv5tpU_2w_kzTAVhH7P-50" style="edgeStyle=orthogonalEdgeStyle;rounded=0;orthogonalLoop=1;jettySize=auto;html=1;endArrow=none;endFill=0;" edge="1" parent="1" source="gmv5tpU_2w_kzTAVhH7P-48" target="gmv5tpU_2w_kzTAVhH7P-5">
          <mxGeometry relative="1" as="geometry" />
        </mxCell>
        <mxCell id="gmv5tpU_2w_kzTAVhH7P-48" value="requere" style="rhombus;whiteSpace=wrap;html=1;" vertex="1" parent="1">
          <mxGeometry x="390" y="245" width="80" height="50" as="geometry" />
        </mxCell>
        <mxCell id="gmv5tpU_2w_kzTAVhH7P-52" style="edgeStyle=orthogonalEdgeStyle;rounded=0;orthogonalLoop=1;jettySize=auto;html=1;entryX=1;entryY=0;entryDx=0;entryDy=0;endArrow=none;endFill=0;" edge="1" parent="1" source="gmv5tpU_2w_kzTAVhH7P-51" target="gmv5tpU_2w_kzTAVhH7P-48">
          <mxGeometry relative="1" as="geometry">
            <Array as="points">
              <mxPoint x="450" y="240" />
              <mxPoint x="450" y="240" />
            </Array>
          </mxGeometry>
        </mxCell>
        <mxCell id="gmv5tpU_2w_kzTAVhH7P-51" value="" style="ellipse;whiteSpace=wrap;html=1;" vertex="1" parent="1">
          <mxGeometry x="445" y="227" width="10" height="10" as="geometry" />
        </mxCell>
        <mxCell id="gmv5tpU_2w_kzTAVhH7P-53" value="&lt;font style=&quot;font-size: 8px;&quot;&gt;numero&lt;/font&gt;" style="text;html=1;align=center;verticalAlign=middle;resizable=0;points=[];autosize=1;strokeColor=none;fillColor=none;" vertex="1" parent="1">
          <mxGeometry x="425" y="204" width="50" height="30" as="geometry" />
        </mxCell>
        <mxCell id="gmv5tpU_2w_kzTAVhH7P-54" value="n" style="text;html=1;align=center;verticalAlign=middle;resizable=0;points=[];autosize=1;strokeColor=none;fillColor=none;" vertex="1" parent="1">
          <mxGeometry x="505" y="248" width="30" height="30" as="geometry" />
        </mxCell>
        <mxCell id="gmv5tpU_2w_kzTAVhH7P-55" value="n" style="text;html=1;align=center;verticalAlign=middle;resizable=0;points=[];autosize=1;strokeColor=none;fillColor=none;" vertex="1" parent="1">
          <mxGeometry x="325" y="248" width="30" height="30" as="geometry" />
        </mxCell>
        <mxCell id="gmv5tpU_2w_kzTAVhH7P-56" value="RESERVA" style="rounded=0;whiteSpace=wrap;html=1;" vertex="1" parent="1">
          <mxGeometry x="210" y="414" width="120" height="40" as="geometry" />
        </mxCell>
        <mxCell id="gmv5tpU_2w_kzTAVhH7P-59" style="edgeStyle=orthogonalEdgeStyle;rounded=0;orthogonalLoop=1;jettySize=auto;html=1;entryX=0.5;entryY=0;entryDx=0;entryDy=0;endArrow=none;endFill=0;" edge="1" parent="1" source="gmv5tpU_2w_kzTAVhH7P-57" target="gmv5tpU_2w_kzTAVhH7P-56">
          <mxGeometry relative="1" as="geometry" />
        </mxCell>
        <mxCell id="gmv5tpU_2w_kzTAVhH7P-57" value="realiza" style="rhombus;whiteSpace=wrap;html=1;" vertex="1" parent="1">
          <mxGeometry x="230" y="330" width="80" height="50" as="geometry" />
        </mxCell>
        <mxCell id="gmv5tpU_2w_kzTAVhH7P-64" value="" style="ellipse;whiteSpace=wrap;html=1;" vertex="1" parent="1">
          <mxGeometry x="350" y="414" width="10" height="10" as="geometry" />
        </mxCell>
        <mxCell id="gmv5tpU_2w_kzTAVhH7P-65" style="edgeStyle=orthogonalEdgeStyle;rounded=0;orthogonalLoop=1;jettySize=auto;html=1;entryX=1.006;entryY=0.133;entryDx=0;entryDy=0;entryPerimeter=0;endArrow=none;endFill=0;" edge="1" source="gmv5tpU_2w_kzTAVhH7P-64" parent="1">
          <mxGeometry relative="1" as="geometry">
            <mxPoint x="330" y="419" as="targetPoint" />
          </mxGeometry>
        </mxCell>
        <mxCell id="gmv5tpU_2w_kzTAVhH7P-66" value="&lt;font style=&quot;font-size: 8px;&quot;&gt;socio&lt;/font&gt;" style="text;html=1;align=center;verticalAlign=middle;resizable=0;points=[];autosize=1;strokeColor=none;fillColor=none;" vertex="1" parent="1">
          <mxGeometry x="352" y="402" width="40" height="30" as="geometry" />
        </mxCell>
        <mxCell id="gmv5tpU_2w_kzTAVhH7P-67" value="" style="ellipse;whiteSpace=wrap;html=1;" vertex="1" parent="1">
          <mxGeometry x="350" y="429" width="10" height="10" as="geometry" />
        </mxCell>
        <mxCell id="gmv5tpU_2w_kzTAVhH7P-68" style="edgeStyle=orthogonalEdgeStyle;rounded=0;orthogonalLoop=1;jettySize=auto;html=1;entryX=1.006;entryY=0.133;entryDx=0;entryDy=0;entryPerimeter=0;endArrow=none;endFill=0;" edge="1" source="gmv5tpU_2w_kzTAVhH7P-67" parent="1">
          <mxGeometry relative="1" as="geometry">
            <mxPoint x="330" y="434" as="targetPoint" />
          </mxGeometry>
        </mxCell>
        <mxCell id="gmv5tpU_2w_kzTAVhH7P-69" value="&lt;font style=&quot;font-size: 8px;&quot;&gt;ISBN&lt;/font&gt;" style="text;html=1;align=center;verticalAlign=middle;resizable=0;points=[];autosize=1;strokeColor=none;fillColor=none;" vertex="1" parent="1">
          <mxGeometry x="352" y="417" width="40" height="30" as="geometry" />
        </mxCell>
        <mxCell id="gmv5tpU_2w_kzTAVhH7P-70" value="" style="ellipse;whiteSpace=wrap;html=1;" vertex="1" parent="1">
          <mxGeometry x="350" y="444" width="10" height="10" as="geometry" />
        </mxCell>
        <mxCell id="gmv5tpU_2w_kzTAVhH7P-71" style="edgeStyle=orthogonalEdgeStyle;rounded=0;orthogonalLoop=1;jettySize=auto;html=1;entryX=1.006;entryY=0.133;entryDx=0;entryDy=0;entryPerimeter=0;endArrow=none;endFill=0;" edge="1" source="gmv5tpU_2w_kzTAVhH7P-70" parent="1">
          <mxGeometry relative="1" as="geometry">
            <mxPoint x="330" y="449" as="targetPoint" />
          </mxGeometry>
        </mxCell>
        <mxCell id="gmv5tpU_2w_kzTAVhH7P-72" value="&lt;span style=&quot;font-size: 8px;&quot;&gt;titulo&lt;/span&gt;" style="text;html=1;align=center;verticalAlign=middle;resizable=0;points=[];autosize=1;strokeColor=none;fillColor=none;" vertex="1" parent="1">
          <mxGeometry x="352" y="432" width="40" height="30" as="geometry" />
        </mxCell>
        <mxCell id="gmv5tpU_2w_kzTAVhH7P-73" style="edgeStyle=orthogonalEdgeStyle;rounded=0;orthogonalLoop=1;jettySize=auto;html=1;endArrow=none;endFill=0;" edge="1" source="gmv5tpU_2w_kzTAVhH7P-74" parent="1">
          <mxGeometry relative="1" as="geometry">
            <mxPoint x="284" y="454" as="targetPoint" />
          </mxGeometry>
        </mxCell>
        <mxCell id="gmv5tpU_2w_kzTAVhH7P-74" value="" style="ellipse;whiteSpace=wrap;html=1;" vertex="1" parent="1">
          <mxGeometry x="279" y="474" width="10" height="10" as="geometry" />
        </mxCell>
        <mxCell id="gmv5tpU_2w_kzTAVhH7P-75" value="&lt;span style=&quot;font-size: 8px;&quot;&gt;autor (1,n)&lt;/span&gt;" style="text;html=1;align=center;verticalAlign=middle;resizable=0;points=[];autosize=1;strokeColor=none;fillColor=none;" vertex="1" parent="1">
          <mxGeometry x="253" y="476" width="60" height="30" as="geometry" />
        </mxCell>
        <mxCell id="gmv5tpU_2w_kzTAVhH7P-76" style="edgeStyle=orthogonalEdgeStyle;rounded=0;orthogonalLoop=1;jettySize=auto;html=1;endArrow=none;endFill=0;" edge="1" source="gmv5tpU_2w_kzTAVhH7P-77" parent="1">
          <mxGeometry relative="1" as="geometry">
            <mxPoint x="318" y="454" as="targetPoint" />
          </mxGeometry>
        </mxCell>
        <mxCell id="gmv5tpU_2w_kzTAVhH7P-77" value="" style="ellipse;whiteSpace=wrap;html=1;" vertex="1" parent="1">
          <mxGeometry x="313" y="474" width="10" height="10" as="geometry" />
        </mxCell>
        <mxCell id="gmv5tpU_2w_kzTAVhH7P-78" value="&lt;font style=&quot;font-size: 8px;&quot;&gt;data&lt;/font&gt;" style="text;html=1;align=center;verticalAlign=middle;resizable=0;points=[];autosize=1;strokeColor=none;fillColor=none;" vertex="1" parent="1">
          <mxGeometry x="297" y="476" width="40" height="30" as="geometry" />
        </mxCell>
        <mxCell id="gmv5tpU_2w_kzTAVhH7P-80" value="n" style="text;html=1;align=center;verticalAlign=middle;resizable=0;points=[];autosize=1;strokeColor=none;fillColor=none;" vertex="1" parent="1">
          <mxGeometry x="265" y="388" width="30" height="30" as="geometry" />
        </mxCell>
        <mxCell id="gmv5tpU_2w_kzTAVhH7P-81" value="n" style="text;html=1;align=center;verticalAlign=middle;resizable=0;points=[];autosize=1;strokeColor=none;fillColor=none;" vertex="1" parent="1">
          <mxGeometry x="265" y="288" width="30" height="30" as="geometry" />
        </mxCell>
        <mxCell id="gmv5tpU_2w_kzTAVhH7P-84" value="" style="ellipse;whiteSpace=wrap;html=1;" vertex="1" parent="1">
          <mxGeometry x="317" y="342" width="10" height="10" as="geometry" />
        </mxCell>
        <mxCell id="gmv5tpU_2w_kzTAVhH7P-85" style="edgeStyle=orthogonalEdgeStyle;rounded=0;orthogonalLoop=1;jettySize=auto;html=1;entryX=1.006;entryY=0.133;entryDx=0;entryDy=0;entryPerimeter=0;endArrow=none;endFill=0;" edge="1" source="gmv5tpU_2w_kzTAVhH7P-84" parent="1">
          <mxGeometry relative="1" as="geometry">
            <mxPoint x="297" y="347" as="targetPoint" />
          </mxGeometry>
        </mxCell>
        <mxCell id="gmv5tpU_2w_kzTAVhH7P-86" value="&lt;font style=&quot;font-size: 8px;&quot;&gt;numero&lt;/font&gt;" style="text;html=1;align=center;verticalAlign=middle;resizable=0;points=[];autosize=1;strokeColor=none;fillColor=none;" vertex="1" parent="1">
          <mxGeometry x="317" y="329" width="50" height="30" as="geometry" />
        </mxCell>
        <mxCell id="gmv5tpU_2w_kzTAVhH7P-87" value="ESTANTE" style="rounded=0;whiteSpace=wrap;html=1;" vertex="1" parent="1">
          <mxGeometry x="537" y="414" width="120" height="40" as="geometry" />
        </mxCell>
        <mxCell id="gmv5tpU_2w_kzTAVhH7P-90" style="edgeStyle=orthogonalEdgeStyle;rounded=0;orthogonalLoop=1;jettySize=auto;html=1;endArrow=none;endFill=0;" edge="1" parent="1" source="gmv5tpU_2w_kzTAVhH7P-88" target="gmv5tpU_2w_kzTAVhH7P-87">
          <mxGeometry relative="1" as="geometry" />
        </mxCell>
        <mxCell id="gmv5tpU_2w_kzTAVhH7P-88" value="esta" style="rhombus;whiteSpace=wrap;html=1;" vertex="1" parent="1">
          <mxGeometry x="557" y="330" width="80" height="50" as="geometry" />
        </mxCell>
        <mxCell id="gmv5tpU_2w_kzTAVhH7P-91" value="1" style="text;html=1;align=center;verticalAlign=middle;resizable=0;points=[];autosize=1;strokeColor=none;fillColor=none;" vertex="1" parent="1">
          <mxGeometry x="592" y="388" width="30" height="30" as="geometry" />
        </mxCell>
        <mxCell id="gmv5tpU_2w_kzTAVhH7P-92" value="n" style="text;html=1;align=center;verticalAlign=middle;resizable=0;points=[];autosize=1;strokeColor=none;fillColor=none;" vertex="1" parent="1">
          <mxGeometry x="590" y="288" width="30" height="30" as="geometry" />
        </mxCell>
      </root>
    </mxGraphModel>
  </diagram>
</mxfile>
